<?xml version="1.0"?>
<svg xmlns="http://www.w3.org/2000/svg" xmlns:xlink="http://www.w3.org/1999/xlink" xmlns:svgjs="http://svgjs.com/svgjs" version="1.1" width="512" height="512" x="0" y="0" viewBox="0 0 36 36" style="enable-background:new 0 0 512 512" xml:space="preserve" class=""><g><path xmlns="http://www.w3.org/2000/svg" d="m8.377 4.167c6.917 0 11.667-3.583 15-3.583s10.333 1.916 10.333 17.249-9.417 17.583-13.083 17.583c-17.167.001-24.5-31.249-12.25-31.249z" fill="#efefef" data-original="#efefef" style="" class=""/><path xmlns="http://www.w3.org/2000/svg" d="m6.75 10.75v13.5h2 4 9v-10.5-3z" fill="#a4bc46" data-original="#2fdf84" style="" class=""/><g xmlns="http://www.w3.org/2000/svg" fill="#f3f3f1"><path d="m25.25 13.75h-3.5v10.5h1.25 4 2.25v-6.5c0-2.21-1.79-4-4-4z" fill="#f3f3f1" data-original="#f3f3f1" style="" class=""/><circle cx="25" cy="24.25" r="2" fill="#f3f3f1" data-original="#f3f3f1" style="" class=""/><circle cx="10.75" cy="24.25" r="2" fill="#f3f3f1" data-original="#f3f3f1" style="" class=""/></g><path xmlns="http://www.w3.org/2000/svg" d="m6.75 10.75v13.5h2 .25v-13.5z" fill="#7f9b10" data-original="#00b871" style="" class=""/><path xmlns="http://www.w3.org/2000/svg" d="m21.75 13.75v10.5h1.25 1v-10.5z" fill="#d5dbe1" data-original="#d5dbe1" style="" class=""/><path xmlns="http://www.w3.org/2000/svg" d="m25.25 24.25c0-.687.347-1.293.875-1.653-.321-.219-.708-.347-1.125-.347-1.105 0-2 .895-2 2s.895 2 2 2c.417 0 .804-.128 1.125-.347-.528-.36-.875-.966-.875-1.653z" fill="#d5dbe1" data-original="#d5dbe1" style="" class=""/><path xmlns="http://www.w3.org/2000/svg" d="m11 24.25c0-.687.347-1.293.875-1.653-.321-.219-.708-.347-1.125-.347-1.105 0-2 .895-2 2s.895 2 2 2c.417 0 .804-.128 1.125-.347-.528-.36-.875-.966-.875-1.653z" fill="#d5dbe1" data-original="#d5dbe1" style="" class=""/><g xmlns="http://www.w3.org/2000/svg" fill="#a4afc1"><path d="m6.063 6.427h2v1h-2z" transform="matrix(.707 -.707 .707 .707 -2.829 7.023)" fill="#a4afc1" data-original="#a4afc1" style=""/><path d="m1.997 10.493h2v1h-2z" transform="matrix(.707 -.707 .707 .707 -6.895 5.339)" fill="#a4afc1" data-original="#a4afc1" style=""/><path d="m2.497 5.75h1v2h-1z" transform="matrix(.707 -.707 .707 .707 -3.895 4.096)" fill="#a4afc1" data-original="#a4afc1" style=""/><path d="m28 9.427c-.827 0-1.5-.673-1.5-1.5s.673-1.5 1.5-1.5 1.5.673 1.5 1.5-.673 1.5-1.5 1.5zm0-2c-.275 0-.5.224-.5.5s.225.5.5.5.5-.224.5-.5-.225-.5-.5-.5z" fill="#a4afc1" data-original="#a4afc1" style=""/></g><path xmlns="http://www.w3.org/2000/svg" d="m21.75 25h-9v-1.5h8.25v-12h-13.5v12h1.25v1.5h-2c-.414 0-.75-.336-.75-.75v-13.5c0-.414.336-.75.75-.75h15c.414 0 .75.336.75.75v13.5c0 .414-.336.75-.75.75z" fill="#363958" data-original="#000000" style="" class=""/><path xmlns="http://www.w3.org/2000/svg" d="m29.25 25h-2.25v-1.5h1.5v-5.75c0-1.792-1.458-3.25-3.25-3.25h-2.75v9h.5v1.5h-1.25c-.414 0-.75-.336-.75-.75v-10.5c0-.414.336-.75.75-.75h3.5c2.619 0 4.75 2.131 4.75 4.75v6.5c0 .414-.336.75-.75.75z" fill="#363958" data-original="#000000" style="" class=""/><path xmlns="http://www.w3.org/2000/svg" d="m25 27c-1.517 0-2.75-1.233-2.75-2.75s1.233-2.75 2.75-2.75 2.75 1.233 2.75 2.75-1.233 2.75-2.75 2.75zm0-4c-.689 0-1.25.561-1.25 1.25s.561 1.25 1.25 1.25 1.25-.561 1.25-1.25-.561-1.25-1.25-1.25z" fill="#363958" data-original="#000000" style="" class=""/><path xmlns="http://www.w3.org/2000/svg" d="m10.75 27c-1.517 0-2.75-1.233-2.75-2.75s1.233-2.75 2.75-2.75 2.75 1.233 2.75 2.75-1.233 2.75-2.75 2.75zm0-4c-.689 0-1.25.561-1.25 1.25s.561 1.25 1.25 1.25 1.25-.561 1.25-1.25-.561-1.25-1.25-1.25z" fill="#363958" data-original="#000000" style="" class=""/></g></svg>
