<?xml version="1.0"?>
<svg xmlns="http://www.w3.org/2000/svg" xmlns:xlink="http://www.w3.org/1999/xlink" xmlns:svgjs="http://svgjs.com/svgjs" version="1.1" width="512" height="512" x="0" y="0" viewBox="0 0 36 36" style="enable-background:new 0 0 512 512" xml:space="preserve" class=""><g><path xmlns="http://www.w3.org/2000/svg" d="m34.904 20.355c-3.782-5.791-3.38-11.727-5.203-14.518s-7.256-7.603-20.093.782-9.572 17.5-7.566 20.569c9.388 14.372 39.561 3.423 32.862-6.833z" fill="#efefef" data-original="#efefef" style="" class=""/><path xmlns="http://www.w3.org/2000/svg" d="m10.61 10.75c.234 0 .459.027.675.063.004.001.007.001.011.002.611.106 1.064.629 1.147 1.244l.595 4.447c.084.627-.234 1.255-.808 1.522-.295.137-.611.236-.945.294.522 1.423 1.351 2.755 2.494 3.898s2.476 1.972 3.899 2.494c.058-.334.157-.65.294-.945.267-.574.894-.892 1.522-.808l4.447.595c.615.082 1.138.535 1.244 1.146.001.004.001.007.002.011.036.216.063.441.063.675 0 1.238-.615 2.423-1.629 3.134-1.811 1.27-4.643.615-6.594.006-2.241-.699-4.291-1.949-5.95-3.608-2.185-2.184-3.756-5.131-4.193-8.201-.193-1.357-.282-2.934.463-4.148.691-1.123 1.944-1.821 3.263-1.821z" fill="#a8c33e" data-original="#2fdf84" style="" class=""/><path xmlns="http://www.w3.org/2000/svg" d="m27.771 13.033-.697-3.157c-.16-.724-.721-1.291-1.443-1.457l-2.698-.62c-.282-.065-.575-.065-.857 0l-2.708.621c-.722.166-1.284.733-1.444 1.457l-.697 3.156c0 1.558.5 3.486 1.74 4.778.826.861 1.981 1.439 3.536 1.439 1.556 0 2.711-.583 3.536-1.439 1.232-1.278 1.729-3.165 1.729-4.633.003-.034.003-.145.003-.145z" fill="#f3f3f1" data-original="#f3f3f1" style="" class=""/><path xmlns="http://www.w3.org/2000/svg" d="m19.928 24.714c.058-.334.157-.65.294-.945.128-.276.343-.489.598-.63l-1.327-.177c-.623-.083-1.245.231-1.515.798.624.385 1.276.706 1.95.954z" fill="#7f9b10" data-original="#00b871" style="" class=""/><path xmlns="http://www.w3.org/2000/svg" d="m19.278 28.529c-2.241-.699-4.291-1.949-5.95-3.608-2.185-2.184-3.756-5.131-4.193-8.201-.193-1.357-.282-2.934.463-4.148.476-.776 1.224-1.342 2.074-1.623-.117-.061-.241-.111-.376-.135-.004-.001-.007-.001-.011-.002-.216-.036-.441-.063-.675-.063-1.318 0-2.572.698-3.261 1.822-.745 1.214-.656 2.79-.463 4.148.437 3.07 2.008 6.016 4.193 8.201 1.659 1.659 3.709 2.909 5.95 3.608 1.431.447 3.335.912 4.965.629-.967-.129-1.916-.379-2.716-.628z" fill="#7f9b10" data-original="#00b871" style="" class=""/><path xmlns="http://www.w3.org/2000/svg" d="m21.219 17.811c-1.241-1.292-1.74-3.22-1.74-4.778l.697-3.156c.16-.724.722-1.292 1.444-1.457l2.01-.461-.695-.16c-.282-.065-.575-.065-.857 0l-2.708.621c-.722.166-1.284.733-1.444 1.457l-.697 3.156c0 1.558.5 3.486 1.74 4.778.826.861 1.981 1.439 3.536 1.439.402 0 .775-.042 1.124-.114-1.002-.207-1.797-.687-2.41-1.325z" fill="#d5dbe1" data-original="#d5dbe1" style=""/><g xmlns="http://www.w3.org/2000/svg" fill="#a4afc1"><path d="m6.26 7.134h2v1h-2z" transform="matrix(.707 -.707 .707 .707 -3.272 7.369)" fill="#a4afc1" data-original="#a4afc1" style="" class=""/><path d="m2.194 11.2h2v1h-2z" transform="matrix(.707 -.707 .707 .707 -7.338 5.686)" fill="#a4afc1" data-original="#a4afc1" style="" class=""/><path d="m2.694 6.457h1v2h-1z" transform="matrix(.707 -.707 .707 .707 -4.338 4.443)" fill="#a4afc1" data-original="#a4afc1" style="" class=""/><path d="m30.031 23.75c-.827 0-1.5-.673-1.5-1.5s.673-1.5 1.5-1.5 1.5.673 1.5 1.5-.673 1.5-1.5 1.5zm0-2c-.275 0-.5.224-.5.5s.225.5.5.5.5-.224.5-.5-.224-.5-.5-.5z" fill="#a4afc1" data-original="#a4afc1" style="" class=""/></g><path xmlns="http://www.w3.org/2000/svg" d="m20.938 30.003c-1.45 0-2.941-.387-4.134-.759-2.343-.731-4.506-2.043-6.256-3.793-2.354-2.354-3.96-5.498-4.405-8.625-.2-1.408-.315-3.208.566-4.646.825-1.345 2.319-2.18 3.9-2.18.277 0 .543.03.799.073.926.161 1.65.935 1.777 1.887l.596 4.446c.127.958-.381 1.904-1.235 2.302-.081.038-.163.073-.247.105.493 1.068 1.167 2.033 2.011 2.876s1.809 1.518 2.877 2.01c.032-.083.067-.166.104-.247.399-.855 1.346-1.363 2.303-1.235l4.446.595c.951.127 1.726.852 1.885 1.761.002.014.004.028.006.042.04.248.069.506.069.774 0 1.492-.729 2.893-1.948 3.748-.91.638-2 .866-3.114.866zm-10.329-18.503c-1.062 0-2.067.561-2.621 1.464-.633 1.03-.525 2.492-.361 3.65.401 2.812 1.853 5.646 3.981 7.776 1.579 1.579 3.53 2.763 5.643 3.422 2.832.883 4.773.913 5.939.096.808-.566 1.31-1.532 1.31-2.52 0-.191-.023-.375-.053-.551-.002-.009-.003-.017-.004-.025-.056-.263-.301-.473-.603-.513l-4.446-.595c-.318-.042-.62.116-.743.381-.108.234-.188.489-.235.757-.038.219-.172.41-.364.521s-.423.131-.633.054c-1.575-.579-2.979-1.476-4.17-2.668-1.191-1.191-2.089-2.594-2.668-4.169-.076-.209-.057-.44.054-.633.111-.192.302-.326.521-.364.268-.047.522-.126.758-.236.267-.124.423-.429.382-.744l-.596-4.445c-.041-.309-.26-.558-.531-.605-.185-.03-.368-.053-.56-.053z" fill="#363958" data-original="#000000" style="" class=""/><path xmlns="http://www.w3.org/2000/svg" d="m20 15c-.552 0-1-.449-1-1s.448-1 1-1 1 .449 1 1-.448 1-1 1z" fill="#363958" data-original="#000000" style="" class=""/><path xmlns="http://www.w3.org/2000/svg" d="m25 15.01c-.552 0-1-.449-1-1s.448-1 1-1 1 .449 1 1-.448 1-1 1z" fill="#363958" data-original="#000000" style="" class=""/><path xmlns="http://www.w3.org/2000/svg" d="m22.506 17.997c-.642 0-1.282-.236-1.771-.707l-.54-.521 1.042-1.079.539.521c.402.388 1.057.388 1.459 0l.539-.521 1.042 1.079-.54.521c-.488.471-1.129.707-1.77.707z" fill="#363958" data-original="#000000" style="" class=""/><path xmlns="http://www.w3.org/2000/svg" d="m28.399 13.74-.6-.451c-.015-.01-1.803-1.29-5.294-1.29-3.538 0-5.29 1.278-5.307 1.291l-.602.449-.896-1.201.601-.449c.087-.064 2.174-1.589 6.205-1.589s6.108 1.525 6.194 1.59l.6.45z" fill="#363958" data-original="#000000" style="" class=""/><path xmlns="http://www.w3.org/2000/svg" d="m22.506 20c-1.619 0-3.028-.578-4.077-1.67-1.221-1.271-1.949-3.251-1.949-5.297 0-.062.008-.123.021-.181l.692-3.137c.222-1.002 1.01-1.797 2.008-2.026l2.708-.621c.393-.089.805-.088 1.193 0l2.697.62c.998.23 1.785 1.025 2.007 2.026l.696 3.157c.012.053.018.107.018.162v.145c0 1.519-.509 3.669-1.938 5.153-1.052 1.092-2.462 1.669-4.076 1.669zm-4.526-6.889c.019 1.292.428 3.032 1.53 4.18.77.802 1.777 1.209 2.995 1.209 1.215 0 2.223-.407 2.996-1.21 1.119-1.162 1.519-2.886 1.519-4.112v-.063l-.679-3.077c-.096-.439-.441-.788-.877-.888l-2.698-.62c-.17-.039-.352-.04-.521 0l-2.708.62c-.437.1-.782.449-.879.888z" fill="#363958" data-original="#000000" style="" class=""/></g></svg>
