<?xml version="1.0"?>
<svg xmlns="http://www.w3.org/2000/svg" xmlns:xlink="http://www.w3.org/1999/xlink" xmlns:svgjs="http://svgjs.com/svgjs" version="1.1" width="512" height="512" x="0" y="0" viewBox="0 0 36 36" style="enable-background:new 0 0 512 512" xml:space="preserve" class=""><g><path xmlns="http://www.w3.org/2000/svg" d="m34.904 20.355c-3.782-5.791-3.38-11.727-5.203-14.518s-7.256-7.603-20.093.782-9.572 17.5-7.566 20.569c9.388 14.372 39.561 3.423 32.862-6.833z" fill="#efefef" data-original="#efefef" style="" class=""/><path xmlns="http://www.w3.org/2000/svg" d="m22.25 25.75v1.5c0 1.105-.895 2-2 2h-10.5c-1.105 0-2-.895-2-2v-18.5c0-1.105.895-2 2-2h10.5c1.105 0 2 .895 2 2v1.5z" fill="#f3f3f1" data-original="#f3f3f1" style="" class=""/><g xmlns="http://www.w3.org/2000/svg" fill="#2fdf84"><path d="m22.06 23.25-5.247-2.554v-5.642l5.247 2.446z" fill="#c0ed10" data-original="#2fdf84" style="" class=""/><path d="m27.313 20.696-5.246 2.554v-5.75l5.246-2.446z" fill="#c0ed10" data-original="#2fdf84" style="" class=""/><path d="m16.813 15.054 5.254-2.304 5.246 2.304-5.246 2.446z" fill="#c0ed10" data-original="#2fdf84" style="" class=""/></g><path xmlns="http://www.w3.org/2000/svg" d="m10 27.25v-18.5c0-1.105.895-2 2-2h-2.25c-1.105 0-2 .895-2 2v18.5c0 1.105.895 2 2 2h2.25c-1.105 0-2-.895-2-2z" fill="#d5dbe1" data-original="#d5dbe1" style="" class=""/><path xmlns="http://www.w3.org/2000/svg" d="m18.996 20.696v-4.593l-2.25-1.049v5.642l5.247 2.554v-1.095z" fill="#a4bc46" data-original="#00b871" style="" class=""/><path xmlns="http://www.w3.org/2000/svg" d="m24.25 17.5 2.996-1.397v-1.049l-5.246 2.446v5.75l2.25-1.095z" fill="#a4bc46" data-original="#00b871" style="" class=""/><path xmlns="http://www.w3.org/2000/svg" d="m20.496 15.054 3.378-1.481-1.874-.823-5.254 2.304 5.254 2.446 1.874-.874z" fill="#a4bc46" data-original="#00b871" style="" class=""/><g xmlns="http://www.w3.org/2000/svg" fill="#a4afc1"><path d="m7.111 2.558h2v1h-2z" transform="matrix(.707 -.707 .707 .707 .214 6.631)" fill="#a4afc1" data-original="#a4afc1" style="" class=""/><path d="m3.046 6.624h2v1h-2z" transform="matrix(.707 -.707 .707 .707 -3.853 4.947)" fill="#a4afc1" data-original="#a4afc1" style="" class=""/><path d="m3.545 1.881h1v2h-1z" transform="matrix(.707 -.707 .707 .707 -.852 3.704)" fill="#a4afc1" data-original="#a4afc1" style="" class=""/><path d="m27.247 11.586c-.827 0-1.5-.673-1.5-1.5s.673-1.5 1.5-1.5 1.5.673 1.5 1.5-.673 1.5-1.5 1.5zm0-2c-.276 0-.5.225-.5.5s.224.5.5.5.5-.225.5-.5-.225-.5-.5-.5z" fill="#a4afc1" data-original="#a4afc1" style="" class=""/></g><path xmlns="http://www.w3.org/2000/svg" d="m17.25 10h-4.5c-.965 0-1.75-.785-1.75-1.75 0-.413-.336-.75-.75-.75h-.5v-1.5h.5c1.241 0 2.25 1.01 2.25 2.25 0 .138.112.25.25.25h4.5c.138 0 .25-.112.25-.25 0-1.24 1.009-2.25 2.25-2.25h.5v1.5h-.5c-.414 0-.75.337-.75.75 0 .965-.785 1.75-1.75 1.75z" fill="#363958" data-original="#000000" style="" class=""/><path xmlns="http://www.w3.org/2000/svg" d="m20.25 30h-10.5c-1.517 0-2.75-1.233-2.75-2.75v-18.5c0-1.517 1.233-2.75 2.75-2.75h10.5c1.517 0 2.75 1.233 2.75 2.75v1.5h-1.5v-1.5c0-.689-.561-1.25-1.25-1.25h-10.5c-.689 0-1.25.561-1.25 1.25v18.5c0 .689.561 1.25 1.25 1.25h10.5c.689 0 1.25-.561 1.25-1.25v-1.5h1.5v1.5c0 1.517-1.233 2.75-2.75 2.75z" fill="#363958" data-original="#000000" style="" class=""/><path xmlns="http://www.w3.org/2000/svg" d="m21.997 24c-.112 0-.224-.025-.328-.075l-5.247-2.554c-.258-.126-.422-.388-.422-.675v-5.643c0-.256.131-.495.347-.633.215-.138.488-.154.72-.047l5.247 2.446c.264.123.433.389.433.68v5.75c0 .259-.133.499-.353.636-.121.077-.259.115-.397.115zm-4.497-3.772 3.747 1.823v-4.073l-3.747-1.748z" fill="#363958" data-original="#000000" style="" class=""/><path xmlns="http://www.w3.org/2000/svg" d="m22.003 24c-.139 0-.276-.038-.397-.114-.219-.137-.353-.377-.353-.636v-5.75c0-.291.169-.557.433-.68l5.247-2.446c.232-.107.504-.091.72.047s.347.377.347.633v5.643c0 .287-.164.549-.422.675l-5.247 2.554c-.103.049-.216.074-.328.074zm.75-6.022v4.073l3.747-1.823v-3.998z" fill="#363958" data-original="#000000" style="" class=""/><path xmlns="http://www.w3.org/2000/svg" d="m17.051 15.74-.603-1.373 5.253-2.304c.192-.084.411-.084.603 0l5.247 2.304-.604 1.373-4.945-2.171z" fill="#363958" data-original="#000000" style="" class=""/><path xmlns="http://www.w3.org/2000/svg" d="m25.5 18.27h-1.5v-1.547l-4.921-2.133.597-1.377 5.373 2.329c.274.119.452.39.452.688v2.04z" fill="#363958" data-original="#000000" style="" class=""/></g></svg>
